<?xml version="1.0" encoding="UTF-8" standalone="no"?>
<svg
   version="1.0"
   width="2167.4958"
   height="598.56006"
   viewBox="0 0 1625.6219 448.92006"
   preserveAspectRatio="xMidYMid"
   id="svg25"
   xml:space="preserve"
   sodipodi:docname="font-light.svg"
   inkscape:version="1.4.2 (ebf0e940, 2025-05-08)"
   xmlns:inkscape="http://www.inkscape.org/namespaces/inkscape"
   xmlns:sodipodi="http://sodipodi.sourceforge.net/DTD/sodipodi-0.dtd"
   xmlns="http://www.w3.org/2000/svg"
   xmlns:svg="http://www.w3.org/2000/svg"><sodipodi:namedview
     id="namedview1"
     pagecolor="#ffffff"
     bordercolor="#000000"
     borderopacity="0.25"
     inkscape:showpageshadow="2"
     inkscape:pageopacity="0.0"
     inkscape:pagecheckerboard="0"
     inkscape:deskcolor="#d1d1d1"
     inkscape:zoom="0.39123489"
     inkscape:cx="1082.4699"
     inkscape:cy="300.33109"
     inkscape:window-width="2560"
     inkscape:window-height="1298"
     inkscape:window-x="1800"
     inkscape:window-y="30"
     inkscape:window-maximized="1"
     inkscape:current-layer="svg25" /><defs
     id="defs25" /><g
     transform="matrix(0.1,0,0,-0.1,-27.943397,1525.1275)"
     fill="#000000"
     stroke="none"
     id="g25"
     style="fill:#ffffff"><path
       d="m 584.43396,15238.075 c -125,-31 -198,-88 -237,-185 l -23,-56 v -1375 -1375 l 22,-115 c 62,-321 213,-629 413,-843 304.00004,-325 722.00004,-507 1200.00004,-524 326,-12 594,47 870,188 74,39 176,99 225,134 115,82 275,240 353,350 220,309 338,752 303,1135 -83,909 -768,1532 -1646,1497 -362,-14 -631,-121 -862,-340 l -73,-70 v 761 761 l -22,26 c -13,14 -41,30 -63,35 -59.00004,14 -400.00004,11 -460.00004,-4 z m 1600.00004,-1880 c 331,-60 560,-266 668,-601 41,-127 51,-191 51,-335 1,-476 -255,-831 -674,-935 -90,-23 -302,-26 -395,-6 -226,49 -461,216 -573,408 -91,155 -132,298 -139,484 -24,563 360,994 887,998 52,1 131,-5 175,-13 z"
       id="path2"
       style="fill:#ffffff" /><path
       d="m 14074.434,15238.075 c -121,-31 -200,-91 -237,-184 l -23,-57 -3,-2010 c -2,-1445 0,-2023 8,-2055 6,-25 21,-55 32,-67 21,-23 22,-23 360,-23 214,0 346,4 359,10 49,27 49,27 49,669 v 601 l 26,6 c 50,13 199,-4 280,-31 346,-115 647,-521 782,-1053 28,-109 46,-159 62,-177 l 23,-25 h 363 c 388,0 406,2 422,49 21,59 -64,377 -160,601 -190,443 -461,774 -793,966 -17,9 -15,13 21,34 261,158 514,450 674,773 106,216 208,576 186,660 -4,16 -20,36 -39,47 -30,19 -52,20 -363,20 -419,0 -384,16 -435,-192 -74,-295 -183,-506 -365,-707 -99,-110 -269,-218 -409,-260 -75,-22 -236,-44 -260,-35 -13,5 -15,157 -15,1194 0,1174 0,1188 -20,1213 -14,17 -37,29 -71,36 -69,15 -391,13 -454,-3 z"
       id="path3"
       style="fill:#ffffff" /><path
       d="m 7779.434,14065.075 c -346,-35 -650,-155 -902,-355 -297,-237 -485,-549 -570,-944 -20,-96 -23,-136 -23,-339 0,-203 3,-243 23,-340 74,-347 210,-603 447,-841 311,-315 729,-483 1198,-484 296,0 536,50 764,160 356,171 605,412 772,748 127,253 179,507 168,821 -18,530 -254,976 -675,1278 -283,202 -633,306 -1020,301 -81,0 -163,-3 -182,-5 z m 314,-683 c 378,-53 660,-342 747,-765 18,-90 16,-313 -5,-420 -36,-184 -127,-357 -261,-491 -133,-133 -273,-210 -439,-239 -233,-40 -447,2 -633,125 -212,139 -348,350 -404,625 -19,93 -21,129 -16,250 8,198 43,323 138,492 60,106 215,262 319,320 171,96 356,130 554,103 z"
       id="path5"
       style="fill:#ffffff" /><path
       d="m 11417.434,14057.075 c -408,-50 -730,-204 -1005,-482 -254,-257 -408,-614 -444,-1027 -25,-285 37,-613 166,-881 114,-239 319,-473 541,-620 268,-178 566,-269 914,-282 389,-14 728,77 1041,278 390,251 657,707 708,1208 15,138 14,213 -4,361 -45,389 -204,725 -467,988 -309,308 -740,475 -1218,471 -69,-1 -173,-7 -232,-14 z m 453,-694 c 294,-75 516,-292 612,-597 66,-209 74,-419 24,-615 -81,-315 -303,-570 -569,-654 -589,-186 -1136,225 -1165,875 -22,521 288,937 752,1010 86,13 257,4 346,-19 z"
       id="path6"
       style="fill:#ffffff" /><path
       d="m 5572.434,14047.075 c -163,-29 -294,-93 -406,-196 -78,-72 -168,-194 -208,-284 l -23,-50 -7,50 c -4,28 -8,113 -8,190 -1,154 -13,198 -61,222 -18,9 -100,13 -299,13 -253,0 -278,-2 -315,-20 -77,-37 -71,101 -74,-1540 -2,-1029 0,-1486 8,-1512 6,-20 22,-46 37,-57 25,-20 38,-21 362,-21 375,0 372,-1 391,68 6,24 10,315 10,827 0,450 5,822 10,865 25,188 102,389 190,494 80,97 189,171 310,212 87,30 313,27 443,-6 89,-22 101,-23 125,-10 60,34 142,353 142,551 0,80 -1,82 -34,114 -88,83 -384,128 -593,90 z"
       id="path7"
       style="fill:#ffffff" /></g></svg>
