<?xml version="1.0" encoding="UTF-8" standalone="no"?>
<!-- Created with Inkscape (http://www.inkscape.org/) -->

<svg
   width="100.4926mm"
   height="139.13708mm"
   viewBox="0 0 100.4926 139.13708"
   version="1.1"
   id="svg1"
   xml:space="preserve"
   xmlns="http://www.w3.org/2000/svg"
   xmlns:svg="http://www.w3.org/2000/svg"><defs
     id="defs1" /><g
     id="layer1"
     transform="translate(-57.134727,-117.52787)"><path
       style="fill:#08a3a9;stroke:none"
       d="m 95.457892,193.85838 c 4.491004,-2.24549 7.853028,-5.51113 13.356748,-4.97605 3.06851,0.29833 5.74905,1.22189 8.3807,2.79357 2.00374,1.19667 3.91391,2.85593 5.23794,4.80145 8.97673,13.1903 -3.18948,31.83661 -19.11848,27.41187 -6.685645,-1.85713 -12.407983,-8.03776 -13.094847,-15.10272 -0.340623,-3.50356 0,-7.21529 0,-10.73777 v -38.23697 c 0,-7.41746 0.769378,-15.54341 -2.138823,-22.52313 -3.824409,-9.17864 -11.544799,-15.38447 -20.908111,-18.2455 -2.101406,-0.6421 -4.160104,-0.8089 -6.285527,-1.22217 -0.777315,-0.15114 -2.655515,-0.55161 -3.36101,-0.0437 -0.637027,0.45865 -0.305548,2.30932 -0.305548,3.01181 v 8.9045 36.92747 28.80867 c 0,12.80666 0.224041,24.83604 6.329178,36.40368 15.675051,29.70011 59.173698,32.97943 81.144418,8.6426 12.26769,-13.58887 15.64375,-32.15118 10.82506,-49.49853 -2.17406,-7.82669 -6.15385,-14.64528 -11.61076,-20.68986 -7.55643,-8.37022 -20.48934,-13.92188 -31.68953,-12.83295 -5.85933,0.56967 -12.579792,3.55412 -15.626518,8.90449 -1.572861,2.7621 -1.13489,6.3758 -1.13489,9.4283 v 18.07089 m 23.308828,36.92747 c 0.53799,1.36287 -0.92517,2.38573 -1.74597,3.40466 -2.23602,2.77575 -5.30783,5.22899 -8.46801,6.85298 -11.030491,5.66842 -22.878843,4.18782 -31.427636,-5.2816 C 65.909235,223.33817 66.387328,208.23853 66.387328,192.54889 v -64.68856 c 2.460256,0.0647 4.91534,1.87058 6.809322,3.31737 9.443668,7.21393 8.822422,18.55651 8.380703,29.15786 -0.281167,6.74807 0.261897,13.41316 0.261897,20.16607 0,17.82876 -4.205226,40.8996 15.190024,50.32787 2.732119,1.32811 5.900116,2.02133 8.904496,2.31342 4.67928,0.45493 8.43009,-1.54601 12.83295,-2.35707 m -4.97604,17.5471 c 0.1981,-1.88188 4.52522,-4.11818 6.02363,-5.32524 4.08056,-3.28712 7.47764,-8.13994 9.90844,-12.74566 8.03127,-15.2171 7.09536,-39.0828 -10.43223,-47.3597 -4.30683,-2.03378 -9.39519,-2.86226 -14.14244,-2.40072 -1.9517,0.18974 -3.78298,1.04758 -5.761733,1.04758 0,-2.19334 0.298518,-4.21118 1.047583,-6.28552 5.46503,-15.13388 24.12141,-10.04105 33.78472,-2.79357 23.20481,17.40361 19.63781,55.53936 -4.45225,69.92649 -4.47752,2.67408 -10.60433,5.93634 -15.97572,5.93634 z"
       id="path1" /></g></svg>
